<?xml version="1.0" encoding="utf-8"?>
<!-- Generator: Adobe Illustrator 23.0.0, SVG Export Plug-In . SVG Version: 6.00 Build 0)  -->
<svg version="1.1" id="Layer_1" xmlns="http://www.w3.org/2000/svg" xmlns:xlink="http://www.w3.org/1999/xlink" x="0px" y="0px"
	 viewBox="0 0 180 38.7966423" style="enable-background:new 0 0 180 38.7966423;" xml:space="preserve">
<style type="text/css">
	.st0{fill:#003865;}
	.st1{fill:url(#SVGID_1_);}
	.st2{fill:url(#SVGID_2_);}
	.st3{fill:url(#SVGID_3_);}
	.st4{fill:url(#SVGID_4_);}
	.st5{fill:url(#SVGID_5_);}
	.st6{fill:url(#SVGID_6_);}
	.st7{fill:url(#SVGID_7_);}
	.st8{fill:url(#SVGID_8_);}
	.st9{fill:url(#SVGID_9_);}
	.st10{fill:url(#SVGID_10_);}
	.st11{fill:url(#SVGID_11_);}
	.st12{fill:url(#SVGID_12_);}
	.st13{fill:url(#SVGID_13_);}
	.st14{fill:url(#SVGID_14_);}
	.st15{fill:url(#SVGID_15_);}
	.st16{fill:url(#SVGID_16_);}
	.st17{fill:url(#SVGID_17_);}
	.st18{fill:url(#SVGID_18_);}
	.st19{fill:url(#SVGID_19_);}
	.st20{fill:url(#SVGID_20_);}
	.st21{fill:url(#SVGID_21_);}
	.st22{fill:url(#SVGID_22_);}
	.st23{fill:url(#SVGID_23_);}
	.st24{fill:url(#SVGID_24_);}
	.st25{fill:url(#SVGID_25_);}
	.st26{fill:url(#SVGID_26_);}
	.st27{fill:url(#SVGID_27_);}
	.st28{fill:url(#SVGID_28_);}
</style>
<g>
	<g>
		<g>
			<path class="st0" d="M59.1062393,11.6194048c-0.7299004-1.5264187-1.6931953-2.7009687-2.8676796-3.4938021
				c-1.1819-0.7965417-2.4341965-1.2004209-3.7309494-1.2004209c-1.2152557,0-2.3489876,0.3148723-3.3752861,0.9373794
				c-0.9077072,0.5483351-1.7857933,1.4449186-2.6157379,2.6675911c-0.0740814-1.1115036-0.2408104-2.2748375-0.4890404-3.4568057
				l-0.0333557-0.155582l-6.328167,0.3519583v1.6820908l0.1815414,0.0074167
				c1.2560043,0.0370865,2.0970497,0.2296638,2.4971962,0.5780039c0.3890228,0.3371239,0.5890846,0.9372892,0.5890846,1.7857513
				v18.2097473c0,0.3556671-0.1333733,0.6298351-0.4075432,0.8446636c-0.2815819,0.2223377-0.7224808,0.3372154-1.3078804,0.3372154
				h-1.5523987v1.7747135h10.2851181V30.714613h-1.5486908c-0.5853996,0-1.0448189-0.1445465-1.3671532-0.4298401
				c-0.2297096-0.199995-0.3482704-0.5667877-0.3482704-1.0855446v-5.5793247
				c0.6520844,0.9374695,1.3930893,1.6746731,2.200779,2.1860123c0.9596062,0.61129,2.0488815,0.9225445,3.2381783,0.9225445
				c2.0822144,0,3.8939705-0.8187943,5.3833923-2.4342194c1.78582-1.92659,2.693531-4.453434,2.693531-7.506361
				C60.2029076,14.8798342,59.8324051,13.1422052,59.1062393,11.6194048z M51.5776482,24.594368
				c-1.4227333,0-2.6083221-0.6149998-3.5271797-1.8265457c-0.9299622-1.2263813-1.4041939-3.1678047-1.4041939-5.7650223
				c0-2.5712576,0.4890671-4.5608931,1.4560699-5.9057693c0.9521904-1.3264236,2.1266747-2.000761,3.493824-2.000761
				c1.3041725,0,2.3452797,0.574295,3.1863022,1.7635899c0.8410454,1.1892948,1.2708397,3.2234335,1.2708397,6.0466061
				c0,2.6898441-0.4779625,4.7609787-1.4116096,6.1466503C53.9229279,24.0904465,52.9188614,24.594368,51.5776482,24.594368z"/>
		</g>
		<g>
			<path class="st0" d="M77.9898529,20.1298103l-0.0814972,0.1519623c-1.5301743,2.86026-3.57164,4.3125954-6.0688171,4.3125954
				c-1.6931915,0-3.1010895-0.6372509-4.1940765-1.893301c-0.93367-1.0966702-1.4486694-3.004715-1.5338821-5.6685982h13.2750702
				l-0.0037079-0.1889591c-0.0259399-1.8599234-0.2778778-3.4271374-0.7447128-4.6535187
				c-0.6669006-1.7561722-1.6820679-3.1233006-3.0121765-4.0643883c-1.3337936-0.9410877-2.9343643-1.4190488-4.757225-1.4190488
				c-2.4823608,0-4.6053543,0.9559221-6.3022308,2.8417163c-1.6931915,1.8784666-2.5490494,4.3756418-2.5490494,7.4174433
				c0,2.8306808,0.8706665,5.1907272,2.5935059,7.0136547c1.7228165,1.8228378,3.8754349,2.7490921,6.3948593,2.7490921
				c3.7013016,0,6.5652695-1.92659,8.5178223-5.72052l0.088913-0.1778336L77.9898529,20.1298103z M70.9095764,8.2663498
				c1.1633835,0,2.193367,0.4890871,3.0566406,1.459754c0.8669586,0.9781733,1.3078537,2.1823034,1.3078537,3.5791006
				c0,0.7298765-0.1185608,1.244833-0.3556671,1.5338354c-0.2260208,0.2815847-0.5446472,0.4150047-0.9633179,0.4150047h-7.8435059
				c0.0592728-2.3082161,0.5483398-4.0643883,1.4486542-5.220396C68.4753799,8.8591881,69.6016998,8.2663498,70.9095764,8.2663498z"
				/>
		</g>
		<g>
			<path class="st0" d="M96.7343521,10.4930668c0,0.8744221-0.218605,1.5672131-0.6483765,2.060009
				c-0.4371872,0.5039215-0.9929428,0.7595453-1.6524429,0.7595453c-0.6446686,0-1.1744843-0.2223368-1.5709229-0.6557941
				c-0.3927307-0.4298401-0.5927963-1.0114613-0.5927963-1.726594c0-0.4667454,0.1148529-0.9077101,0.3408585-1.3189163
				c0.2408066-0.4224224,0.2704544-0.5223742,0.2741623-0.5372086c-0.0037079-0.0407953-0.0037079-0.0963345-0.1926651-0.0963345
				c-0.4890671,0-1.0670471,0.3037462-1.7154236,0.9002934c-0.9225464,0.8595877-1.6450272,2.0563002-2.145195,3.5642662
				c-0.7817535,2.371172-1.1781921,4.2866344-1.1781921,5.698267v3.9791794c0,0.3890457,0.1296692,0.6780472,0.4001465,0.8780422
				c0.2815857,0.2112103,0.7928619,0.3186703,1.5116348,0.3186703h2.5416565v1.8562164H80.2173996v-1.8562164h2.0266495
				c0.5742722,0,1.0114594-0.10746,1.293045-0.326088c0.270462-0.2074127,0.4001236-0.4482918,0.4001236-0.7335854V11.4452801
				c0-0.8447542-0.174118-1.4671707-0.5223923-1.845089c-0.3519821-0.3779192-0.8410492-0.5631695-1.5079422-0.5631695h-1.8080521
				V7.2697229l7.0395279-0.3556666v6.476356c0.6446686-1.9154634,1.3967972-3.4271374,2.2415237-4.4941378
				c1.0337143-1.3078809,2.3341827-1.9710927,3.8643494-1.9710927c1.0522156,0,1.9043655,0.3297067,2.5379257,0.9743752
				C96.4157257,8.5479345,96.7343521,9.4186487,96.7343521,10.4930668z"/>
		</g>
		<g>
			<path class="st0" d="M113.4773102,20.68927c0,1.6820908-0.6743164,3.1271-1.9970093,4.2904339
				c-1.3152771,1.159626-3.0084686,1.7487564-5.0240021,1.7487564c-1.8154602,0-3.5271759-0.5928383-5.0869751-1.7561741
				L99.97995,26.56917h-1.3115921l-0.4149628-7.7509499h1.6524429l0.0444641,0.1222954
				c0.8002701,2.2378426,1.7302322,3.8050556,2.7639465,4.6572266c1.0225677,0.8447533,2.3045044,1.2745018,3.8087387,1.2745018
				c1.3893814,0,2.4638443-0.3038349,3.1974335-0.9002914c0.7335815-0.5928383,1.0892715-1.3264236,1.0892715-2.2378426
				c0-0.515049-0.1333771-0.9670486-0.3927307-1.3522949c-0.2630615-0.3816261-0.6335678-0.6706295-1.0966949-0.8632965
				c-0.4890594-0.1963768-1.7932129-0.4965038-3.8717422-0.8891678c-2.0192108-0.3964615-3.4493637-0.8225918-4.2570572-1.2634659
				c-0.8187866-0.4520016-1.4634552-1.0818348-1.9228973-1.8710508c-0.4557114-0.7891245-0.6891327-1.6598387-0.6891327-2.586092
				c0-1.3967972,0.4742584-2.6824255,1.4116135-3.8197994c1.20784-1.4487181,2.9158401-2.1823034,5.0758743-2.1823034
				c1.5931473,0,3.0936737,0.4890871,4.4571152,1.4634619l1.2522964-1.326333h1.0633392l0.5409393,6.9801865h-1.6598358
				l-0.0407562-0.1297112c-0.5705795-1.8302546-1.3449173-3.1640053-2.3008194-3.9606371
				c-0.9521866-0.7928333-2.1489029-1.1930037-3.549408-1.1930037c-1.2041321,0-2.1600266,0.2927103-2.8343201,0.874423
				c-0.6780243,0.5816221-1.0040665,1.2707939-1.0040665,2.1044216c0,0.7261686,0.3001022,1.3115892,0.9188309,1.7932596
				c0.6224442,0.5075397,1.8710327,0.9151268,3.7198486,1.2115459c2.2304077,0.3779192,3.6420135,0.6853733,4.3200378,0.944706
				c1.1115036,0.4075871,1.9858856,1.0448399,2.5972214,1.893301
				C113.1623688,18.4144325,113.4773102,19.4665985,113.4773102,20.68927z"/>
		</g>
		<g>
			<path class="st0" d="M130.736084,9.4667702c-1.7228394-1.8302546-3.8828583-2.7602162-6.4170761-2.7602162
				c-2.4971771,0-4.6238708,0.9410877-6.3281708,2.789886c-1.700592,1.8487978-2.5638657,4.2793083-2.5638657,7.232192
				c0,2.9343414,0.8595657,5.3611431,2.5527649,7.206234c1.6968765,1.8525066,3.7976379,2.7935944,6.2392273,2.7935944
				c1.648735,0,3.2085571-0.4297504,4.6386871-1.2745037c1.4264221-0.8447533,2.541626-2.0118866,3.3122864-3.4642239
				c0.7706146-1.4523354,1.159668-3.2307606,1.159668-5.2833519
				C133.3296051,13.7312441,132.4589081,11.2934074,130.736084,9.4667702z M124.3190079,24.9500351
				c-1.4375458,0-2.5824051-0.6409607-3.4975357-1.9562569c-0.9188385-1.3226261-1.3819656-3.4567165-1.3819656-6.3466454
				c0-2.8342991,0.4668121-4.9313936,1.3893814-6.2355661c0.9225464-1.2967548,2.0636749-1.9302969,3.4901199-1.9302969
				c1.5005264,0,2.7194672,0.6224165,3.6197815,1.845089c0.9151535,1.2412157,1.378273,3.293808,1.378273,6.1021461
				c0,3.0344753-0.4705353,5.2426472-1.4005051,6.5652733C126.990303,24.3090744,125.8121109,24.9500351,124.3190079,24.9500351z"/>
		</g>
		<g>
			<path class="st0" d="M156.5406647,24.3164921v1.8562164h-10.1480255v-1.8562164h1.1152039
				c0.822525,0,1.3968048-0.1260033,1.7043152-0.3742104c0.3001099-0.2407894,0.4445953-0.6002541,0.4445953-1.100378v-7.9361086
				c0-1.6820908-0.2556458-2.9418497-0.7595215-3.7383909c-0.7113647-1.1411734-1.7598877-1.6969252-3.2085419-1.6969252
				c-1.4264374,0-2.6342773,0.5854216-3.586441,1.7340117c-0.9633179,1.1633339-1.4523926,2.7009687-1.4523926,4.571928v6.8654003
				c0,0.6187992,0.137085,1.0522575,0.4038544,1.3004627c0.2741699,0.2482071,0.7484283,0.3742104,1.4079132,0.3742104h1.4709015
				v1.8562164h-10.1851044v-1.8562164h1.4746094c0.6002045,0,1.0559235-0.1185856,1.359726-0.3556671
				c0.2890167-0.2260456,0.4334869-0.5039215,0.4334869-0.8410454V11.1451521c0-0.7335854-0.200058-1.293046-0.5853729-1.6635475
				c-0.3927307-0.3742094-0.9707336-0.5631685-1.7228394-0.5631685h-1.1374512V7.2734318l6.4874878-0.396462l0.0333405,0.1556721
				c0.2223053,1.0262055,0.3964386,2.2230077,0.5149994,3.5567584c0.7780609-1.1373739,1.6857758-2.0229225,2.7009583-2.6305051
				c1.1522675-0.6854634,2.4749451-1.0337133,3.9235992-1.0337133c1.256012,0,2.326767,0.2519159,3.1826172,0.7484202
				c0.8595734,0.4964142,1.5561066,1.293046,2.0710907,2.3637552c0.5112915,1.0633821,0.7706451,2.2675114,0.7706451,3.5828094
				v9.0216522c0,0.6187992,0.1333771,1.0559654,0.3964386,1.3004627c0.2667542,0.2482071,0.7373047,0.3742104,1.3968048,0.3742104
				H156.5406647z"/>
		</g>
		<g>
			<path class="st0" d="M176.3661957,23.6829491l-0.159317,0.1185856c-0.5335236,0.3963718-1.0411072,0.5964565-1.5116425,0.5964565
				c-0.4001465,0-0.7187805-0.1889591-0.9744263-0.574295c-0.270462-0.3890438-0.4038239-1.0188789-0.4038239-1.8746681V11.8194904
				c0-1.4227581-0.6076355-2.6491394-1.8080597-3.6457663c-1.1930237-0.9743748-2.9269714-1.4671702-5.1647797-1.4671702
				c-2.4156799,0-4.4015656,0.5594602-5.898407,1.6598382c-1.5116272,1.1115046-2.2822723,2.3675547-2.2822723,3.7309742
				c0,0.7447109,0.2408295,1.3708363,0.7187653,1.8487978c0.4742432,0.4853783,1.0744629,0.7298765,1.7821198,0.7298765
				c0.6669006,0,1.2189331-0.2075024,1.6338959-0.6187077c0.4186707-0.407588,0.6298523-0.9410887,0.6298523-1.5857573
				c0-0.4445829-0.2037659-0.9559221-0.6113129-1.5153828c-0.3816223-0.5075397-0.4371796-0.7298765-0.4371796-0.8187933
				c0-0.2667503,0.2778778-0.574295,0.7965546-0.8891668c0.8003082-0.4557095,1.7673035-0.6854639,2.8751068-0.6854639
				c1.1893158,0,2.1785431,0.3445406,2.9454803,1.0225868c0.7706299,0.6817551,1.1448364,1.4745884,1.1448364,2.4305105v2.64534
				c-3.6938782,0.4298391-6.6986389,1.2856283-8.9402008,2.5490961c-2.3119202,1.3004627-3.4864044,2.96772-3.4864044,4.9572639
				c0,1.3338413,0.5223999,2.4379272,1.5523987,3.2901001c1.0188904,0.8410435,2.5157013,1.2707939,4.4497375,1.2707939
				c1.3523102,0,2.5305023-0.2297554,3.501236-0.6817551c0.9151306-0.4260406,1.9784698-1.2559605,3.1603699-2.4712162
				c0.4483032,1.1077957,0.974411,1.9081364,1.5635223,2.3785896c0.6446686,0.5113392,1.4449463,0.7743816,2.3823242,0.7743816
				c1.2189331,0,2.341568-0.5186653,3.3382111-1.541254l0.1037292-0.10746L176.3661957,23.6829491z M164.0692596,24.8129959
				c-0.8262177,0-1.4745941-0.2630405-1.9821777-0.8040485c-0.5075989-0.5335007-0.7632294-1.293045-0.7632294-2.2562943
				c0-1.4042149,0.4890442-2.4527626,1.4893951-3.2159271c1.3375092-0.9967175,3.6346283-1.7340107,6.8283386-2.1897202v2.4379272
				c0,1.7227955-0.5594635,3.1751308-1.6598358,4.3125954S165.5660706,24.8129959,164.0692596,24.8129959z"/>
		</g>
	</g>
	<g>
		<g>
			<g>
				<linearGradient id="SVGID_1_" gradientUnits="userSpaceOnUse" x1="1.2663778" y1="-5.3110251" x2="22.7286892" y2="43.5753517">
					<stop  offset="0.0074119" style="stop-color:#224099"/>
					<stop  offset="0.2429087" style="stop-color:#8A3191"/>
					<stop  offset="0.5042468" style="stop-color:#CE2453"/>
					<stop  offset="0.8350361" style="stop-color:#F58A22"/>
					<stop  offset="0.9909656" style="stop-color:#FFC72C"/>
				</linearGradient>
				<path class="st1" d="M13.0897808,31.9226189c-0.1609573,0-0.3183517-0.0809479-0.4091482-0.2280712
					c-0.1391973-0.2257252-0.0692234-0.5216141,0.1566429-0.6609039c1.2743464-0.7864532,4.4392958-4.8564644,4.9589396-7.5343647
					c0.0504627-0.2604313,0.3027821-0.4298782,0.5629787-0.380024c0.2603836,0.0505562,0.4303474,0.3025932,0.3798828,0.5629311
					c-0.5498466,2.8340282-3.76826,7.1634388-5.3975401,8.1688175
					C13.2629337,31.899498,13.1758881,31.9226189,13.0897808,31.9226189z"/>
			</g>
			<g>
				
					<linearGradient id="SVGID_2_" gradientUnits="userSpaceOnUse" x1="-2.7008929" y1="-3.5692966" x2="18.7614174" y2="45.3170776">
					<stop  offset="0.0074119" style="stop-color:#224099"/>
					<stop  offset="0.2429087" style="stop-color:#8A3191"/>
					<stop  offset="0.5042468" style="stop-color:#CE2453"/>
					<stop  offset="0.8350361" style="stop-color:#F58A22"/>
					<stop  offset="0.9909656" style="stop-color:#FFC72C"/>
				</linearGradient>
				<path class="st2" d="M9.9400272,31.6921558c-0.1590815,0-0.3147869-0.079071-0.406147-0.2234745
					c-0.1418238-0.2241325-0.0752268-0.5208168,0.1489515-0.6626396c1.0143375-0.6419106,2.8591661-2.1064339,3.6844053-3.1866627
					c0.1607704-0.2107182,0.4622393-0.251194,0.6730986-0.0900936c0.2108583,0.161005,0.2511921,0.4623795,0.0900459,0.6731453
					c-0.9338579,1.2226162-2.8994989,2.7607231-3.9339085,3.4152489
					C10.116744,31.6680965,10.0278234,31.6921558,9.9400272,31.6921558z"/>
			</g>
			<g>
				<linearGradient id="SVGID_3_" gradientUnits="userSpaceOnUse" x1="0.5175257" y1="-4.9822607" x2="21.9798374" y2="43.9041138">
					<stop  offset="0.0074119" style="stop-color:#224099"/>
					<stop  offset="0.2429087" style="stop-color:#8A3191"/>
					<stop  offset="0.5042468" style="stop-color:#CE2453"/>
					<stop  offset="0.8350361" style="stop-color:#F58A22"/>
					<stop  offset="0.9909656" style="stop-color:#FFC72C"/>
				</linearGradient>
				<path class="st3" d="M15.8543978,32.0871429c-0.1613331,0-0.3191023-0.0814171-0.4097118-0.2291508
					c-0.1384459-0.2257729-0.0680971-0.5209103,0.1572065-0.6598721c0.0112562-0.0070362,0.5220833-0.3299847,0.8728886-0.8504715
					c0.1480141-0.2199574,0.4470444-0.2782059,0.6665325-0.1299114c0.2200508,0.148201,0.2782059,0.4466686,0.1300049,0.666626
					c-0.4729328,0.7018013-1.1381512,1.1146088-1.1661034,1.1318188
					C16.0268002,32.0642548,15.9401302,32.0871429,15.8543978,32.0871429z"/>
			</g>
		</g>
		<g>
			<linearGradient id="SVGID_4_" gradientUnits="userSpaceOnUse" x1="2.5618095" y1="-5.8797512" x2="24.0241203" y2="43.0066223">
				<stop  offset="0.0074119" style="stop-color:#224099"/>
				<stop  offset="0.2429087" style="stop-color:#8A3191"/>
				<stop  offset="0.5042468" style="stop-color:#CE2453"/>
				<stop  offset="0.8350361" style="stop-color:#F58A22"/>
				<stop  offset="0.9909656" style="stop-color:#FFC72C"/>
			</linearGradient>
			<path class="st4" d="M20.7446766,38.7966423c-0.1982899,0-0.3838234-0.1236725-0.4530468-0.3213081
				c-0.0302029-0.0855904-0.0690346-0.1929893-0.1151848-0.3204613c-0.5479698-1.5155029-2.2160835-6.1274338-2.2160835-10.6453323
				c0-0.2652149,0.2149868-0.4802494,0.4802494-0.4802494s0.4802475,0.2150345,0.4802475,0.4802494
				c0,4.3495293,1.6249657,8.842289,2.1588669,10.3186302c0.0474625,0.1308517,0.0872326,0.2411118,0.1179981,0.3289986
				c0.0879841,0.2502556-0.0437107,0.5243835-0.2939644,0.6122246
				C20.8510437,38.7878723,20.7973919,38.7966423,20.7446766,38.7966423z"/>
		</g>
		<g>
			<linearGradient id="SVGID_5_" gradientUnits="userSpaceOnUse" x1="4.103332" y1="-6.5565171" x2="25.5656433" y2="42.3298569">
				<stop  offset="0.0074119" style="stop-color:#224099"/>
				<stop  offset="0.2429087" style="stop-color:#8A3191"/>
				<stop  offset="0.5042468" style="stop-color:#CE2453"/>
				<stop  offset="0.8350361" style="stop-color:#F58A22"/>
				<stop  offset="0.9909656" style="stop-color:#FFC72C"/>
			</linearGradient>
			<path class="st5" d="M22.401722,37.0917587c-0.1834698,0-0.3586864-0.1058044-0.4386024-0.2841606
				c-0.6246986-1.3958626-1.4024754-4.7650566-1.7097588-6.9158096c-0.0375195-0.2625427,0.144825-0.5058098,0.4074593-0.5433292
				c0.2641373-0.0377541,0.5059509,0.1450138,0.5432816,0.4075089c0.2977161,2.0834522,1.0604858,5.3739491,1.6358471,6.6591778
				c0.108242,0.2420921-0.0001888,0.526207-0.2421894,0.6345444C22.5339775,37.0782051,22.4673805,37.0917587,22.401722,37.0917587z
				"/>
		</g>
		<g>
			
				<linearGradient id="SVGID_6_" gradientUnits="userSpaceOnUse" x1="13.5578194" y1="-10.7072678" x2="35.0201302" y2="38.1791077">
				<stop  offset="0.0074119" style="stop-color:#224099"/>
				<stop  offset="0.2429087" style="stop-color:#8A3191"/>
				<stop  offset="0.5042468" style="stop-color:#CE2453"/>
				<stop  offset="0.8350361" style="stop-color:#F58A22"/>
				<stop  offset="0.9909656" style="stop-color:#FFC72C"/>
			</linearGradient>
			<path class="st6" d="M29.2109299,29.2897415c-0.1883488,0-0.3669395-0.1113853-0.4436665-0.2960739
				c-0.8777676-2.1118736-1.0396633-4.1919022-1.0828114-5.7680931c-0.0279522-1.0198231,0.0378952-1.9393311,0.0907974-2.6781807
				c0.0437107-0.6123161,0.081604-1.1411057,0.0476494-1.4884415c-0.0256996-0.2639484,0.1673374-0.498867,0.4312859-0.524662
				c0.266201-0.0256538,0.4990082,0.1673832,0.5247097,0.4313316c0.0418339,0.4281445,0.0031891,0.9674854-0.0455875,1.6502914
				c-0.0514011,0.7177467-0.1153717,1.6109886-0.0887337,2.5833988c0.0408974,1.4933186,0.1924763,3.4595699,1.0096474,5.4257259
				c0.1018658,0.2449093-0.0142574,0.5259762-0.2592583,0.6277943
				C29.3347435,29.2778759,29.272274,29.2897415,29.2109299,29.2897415z"/>
		</g>
		<g>
			<linearGradient id="SVGID_7_" gradientUnits="userSpaceOnUse" x1="4.6905804" y1="-6.8143334" x2="26.1528912" y2="42.0720406">
				<stop  offset="0.0074119" style="stop-color:#224099"/>
				<stop  offset="0.2429087" style="stop-color:#8A3191"/>
				<stop  offset="0.5042468" style="stop-color:#CE2453"/>
				<stop  offset="0.8350361" style="stop-color:#F58A22"/>
				<stop  offset="0.9909656" style="stop-color:#FFC72C"/>
			</linearGradient>
			<path class="st7" d="M4.7313972,23.3295517c-0.1583319,0-0.3132873-0.0782757-0.4050221-0.2215996
				c-0.1427612-0.2234745-0.0774775-0.5204411,0.1459503-0.6632957c3.4197059-2.1863499,4.1224442-4.2001572,4.3533764-5.5246849
				c0.4363508-2.501606,1.7455902-4.5516195,3.786458-5.9283943c2.2410336-1.5119848,5.192873-2.0221071,8.0970612-1.3996611
				c3.9157124,0.8392153,6.7187862,3.4458761,7.6907272,7.1516676c0.0673466,0.2565861-0.0861073,0.5190811-0.342741,0.58638
				c-0.2555065,0.067255-0.5190792-0.086153-0.5862408-0.3426914c-0.8766403-3.3425102-3.4146404-5.6956806-6.9628487-6.456152
				c-2.6514969-0.568325-5.3333836-0.1099787-7.3588686,1.2566662c-1.819128,1.2272596-2.9869194,3.0590029-3.3773079,5.2971764
				c-0.2622614,1.503355-1.0432272,3.7784386-4.7822232,6.1688919C4.9096141,23.3051167,4.819943,23.3295517,4.7313972,23.3295517z"
				/>
		</g>
		<g>
			<linearGradient id="SVGID_8_" gradientUnits="userSpaceOnUse" x1="10.0397711" y1="-9.1627588" x2="31.5020828" y2="39.7236176">
				<stop  offset="0.0074119" style="stop-color:#224099"/>
				<stop  offset="0.2429087" style="stop-color:#8A3191"/>
				<stop  offset="0.5042468" style="stop-color:#CE2453"/>
				<stop  offset="0.8350361" style="stop-color:#F58A22"/>
				<stop  offset="0.9909656" style="stop-color:#FFC72C"/>
			</linearGradient>
			<path class="st8" d="M27.4116859,31.7129326c-0.2166748,0-0.4132748-0.1475925-0.4663658-0.3674564l-0.8884583-3.6738987
				c-0.0624714-0.2578049,0.0960484-0.5173454,0.3538074-0.5796757c0.2577572-0.0624695,0.51758,0.0961437,0.5796738,0.3539028
				l0.8884602,3.6738987c0.0624695,0.2578049-0.0960503,0.5173454-0.3538074,0.5796757
				C27.4871006,31.7085705,27.4490185,31.7129326,27.4116859,31.7129326z"/>
		</g>
		<g>
			<linearGradient id="SVGID_9_" gradientUnits="userSpaceOnUse" x1="12.0889473" y1="-10.062397" x2="33.5512581" y2="38.8239784">
				<stop  offset="0.0074119" style="stop-color:#224099"/>
				<stop  offset="0.2429087" style="stop-color:#8A3191"/>
				<stop  offset="0.5042468" style="stop-color:#CE2453"/>
				<stop  offset="0.8350361" style="stop-color:#F58A22"/>
				<stop  offset="0.9909656" style="stop-color:#FFC72C"/>
			</linearGradient>
			<path class="st9" d="M26.2029991,26.3982162c-0.2277431,0-0.4299717-0.1627884-0.4719944-0.3948917
				c-0.306345-1.6942368-0.5460949-3.6364269-0.2286797-6.352457c0.2547569-2.1794548-0.9438019-4.4687014-3.0535164-5.8320627
				c-0.2226791-0.1439333-0.2864609-0.4412279-0.1425743-0.6639996c0.1440735-0.2229118,0.4412289-0.2866478,0.664093-0.1426668
				c2.4143734,1.5604315,3.7828941,4.2100983,3.4861145,6.7502079c-0.302969,2.5914192-0.073349,4.448864,0.219677,6.070076
				c0.0472736,0.2609959-0.1260662,0.510828-0.3871994,0.5580559
				C26.2602158,26.3956833,26.2313271,26.3982162,26.2029991,26.3982162z"/>
		</g>
		<g>
			<linearGradient id="SVGID_10_" gradientUnits="userSpaceOnUse" x1="8.4320078" y1="-8.456912" x2="29.8943195" y2="40.4294624">
				<stop  offset="0.0074119" style="stop-color:#224099"/>
				<stop  offset="0.2429087" style="stop-color:#8A3191"/>
				<stop  offset="0.5042468" style="stop-color:#CE2453"/>
				<stop  offset="0.8350361" style="stop-color:#F58A22"/>
				<stop  offset="0.9909656" style="stop-color:#FFC72C"/>
			</linearGradient>
			<path class="st10" d="M14.4969463,13.8697844c-0.1577692,0-0.3123493-0.0776653-0.4040842-0.220192
				c-0.1436987-0.2229586-0.0793533-0.5201597,0.1436996-0.6638117c1.7849855-1.1498756,3.9085836-1.5386705,5.9798422-1.0947227
				c0.4089603,0.0876551,0.8092937,0.2031679,1.190115,0.3433495c0.2487545,0.0916414,0.3763199,0.3677378,0.284584,0.6166315
				c-0.0917339,0.2488947-0.367878,0.3763199-0.6166306,0.2846785c-0.3382378-0.1245642-0.6944847-0.2273207-1.0591736-0.3054543
				c-1.8217545-0.3903894-3.6890945-0.0483065-5.2587185,0.9629345
				C14.6762886,13.8450222,14.5860548,13.8697844,14.4969463,13.8697844z"/>
		</g>
		<g>
			<linearGradient id="SVGID_11_" gradientUnits="userSpaceOnUse" x1="-1.098152" y1="-4.2729387" x2="20.3641586" y2="44.6134377">
				<stop  offset="0.0074119" style="stop-color:#224099"/>
				<stop  offset="0.2429087" style="stop-color:#8A3191"/>
				<stop  offset="0.5042468" style="stop-color:#CE2453"/>
				<stop  offset="0.8350361" style="stop-color:#F58A22"/>
				<stop  offset="0.9909656" style="stop-color:#FFC72C"/>
			</linearGradient>
			<path class="st11" d="M5.5690174,25.8057842c-0.1371331,0-0.2733288-0.0583897-0.3682528-0.1717453
				c-0.1703382-0.2032604-0.1436992-0.5061836,0.0594683-0.676569c0.2281179-0.1911144,0.450983-0.3765068,0.6684079-0.5573959
				c2.587338-2.1522541,4.2967219-3.5740986,4.8747087-6.4145527c0.316288-1.5531139,1.0897503-2.955637,2.2370939-4.0558929
				c0.1911612-0.1833763,0.4952555-0.1773262,0.679101,0.0142574c0.1834698,0.1913958,0.1770916,0.4954433-0.0142574,0.6790066
				c-1.0057077,0.9643898-1.6836834,2.1934319-1.9605761,3.5541668c-0.6455212,3.1713734-2.556572,4.7611179-5.2018776,6.9614429
				c-0.2164869,0.1801395-0.4384141,0.3647346-0.6654062,0.5550995C5.7873802,25.7689686,5.6780114,25.8057842,5.5690174,25.8057842
				z"/>
		</g>
		<g>
			<linearGradient id="SVGID_12_" gradientUnits="userSpaceOnUse" x1="8.5001068" y1="-8.4868088" x2="29.9624176" y2="40.3995667">
				<stop  offset="0.0074119" style="stop-color:#224099"/>
				<stop  offset="0.2429087" style="stop-color:#8A3191"/>
				<stop  offset="0.5042468" style="stop-color:#CE2453"/>
				<stop  offset="0.8350361" style="stop-color:#F58A22"/>
				<stop  offset="0.9909656" style="stop-color:#FFC72C"/>
			</linearGradient>
			<path class="st12" d="M25.8512554,33.3778572c-0.1999798,0-0.3866386-0.1257858-0.4545479-0.3255768
				c-0.1553307-0.4558144-0.3072834-0.8736839-0.454361-1.2778168c-0.6708469-1.8440304-1.250145-3.4365883-1.4912071-6.9442768
				c-0.018198-0.2646065,0.1815929-0.4938507,0.4462929-0.5120468c0.2626362-0.0176811,0.4937553,0.1815948,0.5119514,0.4461994
				c0.2316818,3.3724785,0.7629566,4.8328743,1.4356804,6.681736c0.1485767,0.4087276,0.3024063,0.831337,0.4607372,1.2965775
				c0.0855446,0.2510529-0.0485859,0.5239105-0.2997799,0.6094093
				C25.9548092,33.3695564,25.9024696,33.3778572,25.8512554,33.3778572z"/>
		</g>
		<g>
			<linearGradient id="SVGID_13_" gradientUnits="userSpaceOnUse" x1="5.1526875" y1="-7.01721" x2="26.6149979" y2="41.8691635">
				<stop  offset="0.0074119" style="stop-color:#224099"/>
				<stop  offset="0.2429087" style="stop-color:#8A3191"/>
				<stop  offset="0.5042468" style="stop-color:#CE2453"/>
				<stop  offset="0.8350361" style="stop-color:#F58A22"/>
				<stop  offset="0.9909656" style="stop-color:#FFC72C"/>
			</linearGradient>
			<path class="st13" d="M10.9431086,24.1973743c-0.1076803,0-0.2159243-0.0359707-0.3054075-0.1097908
				c-0.204668-0.1687908-0.2335587-0.4714775-0.064909-0.6760998c1.3413191-1.6258564,2.0997734-3.0982113,2.4588337-4.773922
				c0.2703276-1.4885826,1.1313982-2.792099,2.4215021-3.6557026c1.3257475-0.8874741,2.9589682-1.2093906,4.4796286-0.8834877
				c3.1358719,0.6721134,4.7687168,2.8911037,4.3678207,5.9358044l-0.006752,0.0514946
				c-0.0819798,0.6205235-0.2189255,1.6591072-0.0949249,2.6848888c0.0318909,0.2633381-0.1557045,0.5026188-0.4190922,0.5344639
				c-0.2645111,0.0314693-0.5025711-0.1558933-0.5342751-0.4190922c-0.1388226-1.1464062,0.0082531-2.2603092,0.0960484-2.9259033
				l0.0067539-0.0511665c0.3331718-2.5317154-0.9850712-4.3072281-3.616869-4.8712854
				c-1.2687187-0.2720623-2.633112-0.0011721-3.7440615,0.7424622c-1.0721169,0.7177458-1.7872372,1.7988214-2.0136662,3.0440893
				c-0.396018,1.8489094-1.2154417,3.4477043-2.6599379,5.1986408
				C11.2188768,24.1378593,11.0813675,24.1973743,10.9431086,24.1973743z"/>
		</g>
		<g>
			
				<linearGradient id="SVGID_14_" gradientUnits="userSpaceOnUse" x1="-4.8559709" y1="-2.6231647" x2="16.6063404" y2="46.2632103">
				<stop  offset="0.0074119" style="stop-color:#224099"/>
				<stop  offset="0.2429087" style="stop-color:#8A3191"/>
				<stop  offset="0.5042468" style="stop-color:#CE2453"/>
				<stop  offset="0.8350361" style="stop-color:#F58A22"/>
				<stop  offset="0.9909656" style="stop-color:#FFC72C"/>
			</linearGradient>
			<path class="st14" d="M6.3758721,28.3997822c-0.1399474,0-0.278769-0.0608749-0.373693-0.1781235
				c-0.1667738-0.2061691-0.1348825-0.5085754,0.0712867-0.6754436c0.0217614-0.0177269,2.2040772-1.785923,3.1122346-2.7049599
				c0.186471-0.1886768,0.4903784-0.1904583,0.679101-0.0039864c0.1887226,0.1864243,0.1905985,0.4904709,0.0041265,0.6791477
				c-0.9456758,0.9569321-3.10004,2.7025681-3.1913996,2.7764359C6.5887947,28.3647957,6.4818645,28.3997822,6.3758721,28.3997822z"
				/>
		</g>
		<g>
			<linearGradient id="SVGID_15_" gradientUnits="userSpaceOnUse" x1="-2.2804921" y1="-3.7538629" x2="19.181818" y2="45.1325111">
				<stop  offset="0.0074119" style="stop-color:#224099"/>
				<stop  offset="0.2429087" style="stop-color:#8A3191"/>
				<stop  offset="0.5042468" style="stop-color:#CE2453"/>
				<stop  offset="0.8350361" style="stop-color:#F58A22"/>
				<stop  offset="0.9909656" style="stop-color:#FFC72C"/>
			</linearGradient>
			<path class="st15" d="M6.961925,31.1846123c-0.1487641,0-0.295465-0.0688953-0.3892636-0.1986179
				c-0.1557055-0.2148457-0.1076808-0.5150948,0.1073055-0.67066c1.188427-0.8606014,5.1758013-3.8642635,6.5857801-6.382143
				c0.4796858-0.8563328,0.8383713-1.5822868,1.1287718-2.2846508c0.1013021-0.2450943,0.3825102-0.3616867,0.627511-0.2601967
				c0.2450018,0.1013966,0.3614998,0.3822289,0.2601976,0.6273251c-0.3054085,0.7381935-0.6798515,1.4966488-1.178297,2.386797
				c-1.4649448,2.6157589-5.2859201,5.550478-6.8607974,6.690834C7.1581516,31.1549244,7.0594759,31.1846123,6.961925,31.1846123z"
				/>
		</g>
		<g>
			<linearGradient id="SVGID_16_" gradientUnits="userSpaceOnUse" x1="6.8299694" y1="-7.7535777" x2="28.2922802" y2="41.1327972">
				<stop  offset="0.0074119" style="stop-color:#224099"/>
				<stop  offset="0.2429087" style="stop-color:#8A3191"/>
				<stop  offset="0.5042468" style="stop-color:#CE2453"/>
				<stop  offset="0.8350361" style="stop-color:#F58A22"/>
				<stop  offset="0.9909656" style="stop-color:#FFC72C"/>
			</linearGradient>
			<path class="st16" d="M23.0014687,31.3607655c-0.2193012,0-0.4172153-0.1509686-0.4678669-0.3736935l-0.0922985-0.404974
				c-0.7560158-3.312212-1.3531361-5.9283943-1.0490417-9.5028667c0.2667637-3.1347923-1.0012054-3.6077728-2.3228264-3.823555
				c-1.4433708-0.235857-2.5017929,0.6785851-2.9794159,2.5738297c-0.0647202,0.2572441-0.3256674,0.4129009-0.5828629,0.3484154
				c-0.2571955-0.0648155-0.4132767-0.3258095-0.3483677-0.583004c0.5984344-2.3762455,2.1168442-3.605052,4.0656013-3.2871685
				c1.6245899,0.2652607,3.4480343,1.0565453,3.1249924,4.8528996c-0.2915268,3.4252872,0.2620716,5.8507748,1.0282192,9.2077293
				l0.0924835,0.4053974c0.0589066,0.2586498-0.1029892,0.5160332-0.3616867,0.5748901
				C23.0725689,31.3568726,23.0367374,31.3607655,23.0014687,31.3607655z"/>
		</g>
		<g>
			<linearGradient id="SVGID_17_" gradientUnits="userSpaceOnUse" x1="5.7989073" y1="-7.3009162" x2="27.2612171" y2="41.5854607">
				<stop  offset="0.0074119" style="stop-color:#224099"/>
				<stop  offset="0.2429087" style="stop-color:#8A3191"/>
				<stop  offset="0.5042468" style="stop-color:#CE2453"/>
				<stop  offset="0.8350361" style="stop-color:#F58A22"/>
				<stop  offset="0.9909656" style="stop-color:#FFC72C"/>
			</linearGradient>
			<path class="st17" d="M24.1223602,35.330883c-0.1986637,0-0.3843861-0.1240959-0.4534206-0.3222008
				c-0.0200729-0.0574036-0.4930058-1.4178581-0.7205601-2.491848c-0.0551548-0.2594948,0.1106815-0.5143929,0.3701286-0.5694046
				c0.2598209-0.054966,0.5143909,0.1107292,0.5693569,0.3701744c0.2151737,1.0149956,0.6832275,2.3612366,0.6879177,2.3746986
				c0.0874195,0.2504387-0.044836,0.5242844-0.2952785,0.61166C24.2281647,35.3222046,24.1748886,35.330883,24.1223602,35.330883z"
				/>
		</g>
		<g>
			
				<linearGradient id="SVGID_18_" gradientUnits="userSpaceOnUse" x1="22.6080132" y1="-14.6819258" x2="44.0703239" y2="34.2044487">
				<stop  offset="0.0074119" style="stop-color:#224099"/>
				<stop  offset="0.2429087" style="stop-color:#8A3191"/>
				<stop  offset="0.5042468" style="stop-color:#CE2453"/>
				<stop  offset="0.8350361" style="stop-color:#F58A22"/>
				<stop  offset="0.9909656" style="stop-color:#FFC72C"/>
			</linearGradient>
			<path class="st18" d="M33.8451385,8.6922016c-0.148201,0-0.294342-0.0683794-0.3883247-0.1972589
				c-1.1492195-1.5754862-2.5299339-2.949306-4.1038742-4.0833297c-0.2151737-0.1550488-0.2639484-0.4552042-0.1088047-0.670378
				c0.1549549-0.2153614,0.4552975-0.2638552,0.6704712-0.1089001c1.6562939,1.193445,3.109045,2.6390207,4.3181057,4.2965336
				c0.1562691,0.2142825,0.1093712,0.5147195-0.104866,0.6710343C34.0424919,8.6621857,33.9432526,8.6922016,33.8451385,8.6922016z"
				/>
		</g>
		<g>
			
				<linearGradient id="SVGID_19_" gradientUnits="userSpaceOnUse" x1="13.4694624" y1="-10.6684771" x2="34.9317741" y2="38.2178993">
				<stop  offset="0.0074119" style="stop-color:#224099"/>
				<stop  offset="0.2429087" style="stop-color:#8A3191"/>
				<stop  offset="0.5042468" style="stop-color:#CE2453"/>
				<stop  offset="0.8350361" style="stop-color:#F58A22"/>
				<stop  offset="0.9909656" style="stop-color:#FFC72C"/>
			</linearGradient>
			<path class="st19" d="M27.8425961,3.3607414c-0.0795403,0-0.1600189-0.0197446-0.2343082-0.0613441
				c-1.5675602-0.8780947-3.2598724-1.5199579-5.02985-1.9078146c-3.9573593-0.8670734-7.989006-0.4197015-11.6595287,1.2934812
				c-0.2408752,0.1122768-0.5262098,0.0081606-0.6383924-0.2320576c-0.1121836-0.2403586-0.008255-0.5261157,0.2320566-0.6382986
				c3.8633728-1.8031355,8.1068172-2.27391,12.271471-1.3613915c1.862463,0.4081173,3.6435089,1.0837479,5.2936115,2.0080853
				c0.2314949,0.1296294,0.3138504,0.4223275,0.1842213,0.6537285C28.173893,3.2722425,28.0106831,3.3607414,27.8425961,3.3607414z"
				/>
		</g>
		<g>
			
				<linearGradient id="SVGID_20_" gradientUnits="userSpaceOnUse" x1="-2.9209213" y1="-3.4726987" x2="18.5413895" y2="45.4136772">
				<stop  offset="0.0074119" style="stop-color:#224099"/>
				<stop  offset="0.2429087" style="stop-color:#8A3191"/>
				<stop  offset="0.5042468" style="stop-color:#CE2453"/>
				<stop  offset="0.8350361" style="stop-color:#F58A22"/>
				<stop  offset="0.9909656" style="stop-color:#FFC72C"/>
			</linearGradient>
			<path class="st20" d="M3.0385215,18.4726639c-0.1510155,0-0.2995923-0.0710526-0.3932033-0.2039165
				c-0.1525164-0.2169094-0.1005518-0.5165024,0.1164978-0.6691132c0.8107944-0.5706215,1.7026305-1.2760334,2.1701221-2.1816587
				c0.2635736-0.5106392,0.5419679-1.2510376,0.8366828-2.0349112C6.036509,12.670805,6.31359,11.9342527,6.6343808,11.2071266
				c0.1071181-0.2428446,0.39114-0.3524008,0.6331401-0.2455645c0.2427502,0.1070709,0.3526821,0.3905773,0.2455645,0.633234
				c-0.3099103,0.7026443-0.5821137,1.4264402-0.8453121,2.1263647c-0.3050327,0.8108883-0.5929942,1.5767994-0.8822689,2.1373396
				c-0.5627909,1.0901728-1.5649343,1.8889608-2.4710276,2.5266027C3.2304335,18.4442444,3.1340084,18.4726639,3.0385215,18.4726639
				z"/>
		</g>
		<g>
			<linearGradient id="SVGID_21_" gradientUnits="userSpaceOnUse" x1="7.3429322" y1="-7.9787807" x2="28.8052425" y2="40.9075928">
				<stop  offset="0.0074119" style="stop-color:#224099"/>
				<stop  offset="0.2429087" style="stop-color:#8A3191"/>
				<stop  offset="0.5042468" style="stop-color:#CE2453"/>
				<stop  offset="0.8350361" style="stop-color:#F58A22"/>
				<stop  offset="0.9909656" style="stop-color:#FFC72C"/>
			</linearGradient>
			<path class="st21" d="M8.0150948,10.3602667c-0.0983009,0-0.1975398-0.0301094-0.2830839-0.0926256
				C7.5179629,10.1110907,7.471251,9.8106079,7.6278944,9.5965128c2.6942682-3.6846399,7.5537806-5.5874829,12.6856852-4.9663963
				c0.2631989,0.0318913,0.4507942,0.2712183,0.4189034,0.5345106c-0.0317039,0.2631516-0.2680759,0.450655-0.5344639,0.419045
				c-4.7869129-0.5800033-9.3057489,1.175436-11.7949734,4.5797582C8.3090591,10.2920284,8.1631088,10.36022,8.0150948,10.3602667z"
				/>
		</g>
		<g>
			
				<linearGradient id="SVGID_22_" gradientUnits="userSpaceOnUse" x1="17.225338" y1="-12.3173981" x2="38.6876488" y2="36.5689774">
				<stop  offset="0.0074119" style="stop-color:#224099"/>
				<stop  offset="0.2429087" style="stop-color:#8A3191"/>
				<stop  offset="0.5042468" style="stop-color:#CE2453"/>
				<stop  offset="0.8350361" style="stop-color:#F58A22"/>
				<stop  offset="0.9909656" style="stop-color:#FFC72C"/>
			</linearGradient>
			<path class="st22" d="M32.3145332,20.1427002c-0.0142555,0-0.0283279-0.0006561-0.0427704-0.0019226
				c-0.2641373-0.0233097-0.459425-0.2563992-0.4361629-0.5205822c0.5978718-6.7746439-3.1947784-11.9885273-9.8976192-13.6069736
				c-0.2577572-0.0622354-0.4162769-0.3217287-0.3539944-0.5795341c0.0622826-0.2578521,0.3215408-0.4162779,0.5794868-0.354136
				c3.4245834,0.8268805,6.2336597,2.5922623,8.1235123,5.1052175c1.9587002,2.6047373,2.8250217,5.8966436,2.5053577,9.519845
				C32.7703934,19.9544468,32.5606613,20.1427002,32.3145332,20.1427002z"/>
		</g>
		<g>
			<linearGradient id="SVGID_23_" gradientUnits="userSpaceOnUse" x1="0.9132296" y1="-5.1559844" x2="22.3755398" y2="43.7303886">
				<stop  offset="0.0074119" style="stop-color:#224099"/>
				<stop  offset="0.2429087" style="stop-color:#8A3191"/>
				<stop  offset="0.5042468" style="stop-color:#CE2453"/>
				<stop  offset="0.8350361" style="stop-color:#F58A22"/>
				<stop  offset="0.9909656" style="stop-color:#FFC72C"/>
			</linearGradient>
			<path class="st23" d="M4.8210683,20.1205158c-0.1459503,0-0.2902126-0.0663624-0.3845739-0.1921463
				c-0.1590819-0.2121716-0.1161222-0.5131702,0.0960498-0.6723461c1.1420903-0.8567085,1.9442554-1.743433,2.4128728-3.5142555
				c0.5106387-1.92906,2.1791263-6.5757437,6.6326795-8.0565872c0.2521305-0.0838089,0.5235834,0.0526676,0.6072512,0.3041883
				c0.0836687,0.2517085-0.0525274,0.5235829-0.3040943,0.6072516C9.872117,9.9296379,8.3447027,14.2093821,7.874022,15.9875202
				c-0.5380282,2.0325661-1.4945855,3.0838127-2.7651801,4.0368996C5.0225472,20.0891876,4.9212451,20.1205158,4.8210683,20.1205158
				z"/>
		</g>
		<g>
			<linearGradient id="SVGID_24_" gradientUnits="userSpaceOnUse" x1="12.806076" y1="-10.3772345" x2="34.2683868" y2="38.50914">
				<stop  offset="0.0074119" style="stop-color:#224099"/>
				<stop  offset="0.2429087" style="stop-color:#8A3191"/>
				<stop  offset="0.5042468" style="stop-color:#CE2453"/>
				<stop  offset="0.8350361" style="stop-color:#F58A22"/>
				<stop  offset="0.9909656" style="stop-color:#FFC72C"/>
			</linearGradient>
			<path class="st24" d="M27.1411724,11.3113365c-0.1256905,0-0.251194-0.0490561-0.3453674-0.1466541
				c-1.3979721-1.4474983-3.1683254-2.496212-5.1198959-3.0327396c-1.9221191-0.5286016-3.9492931-0.5392942-5.8622198-0.0311413
				c-0.2553186,0.0680037-0.5194559-0.0844183-0.5873661-0.3408637c-0.0680971-0.256351,0.0844193-0.519362,0.3408642-0.58746
				c2.0768862-0.5517225,4.2774-0.5403261,6.3634787,0.0332985c2.117218,0.5821605,4.0385876,1.7204056,5.555872,3.2917175
				c0.1844082,0.1907864,0.1789665,0.4947872-0.0118179,0.6790543
				C27.3816719,11.2665482,27.2612343,11.3113365,27.1411724,11.3113365z"/>
		</g>
		<g>
			
				<linearGradient id="SVGID_25_" gradientUnits="userSpaceOnUse" x1="16.0219955" y1="-11.7891016" x2="37.4843063" y2="37.0972748">
				<stop  offset="0.0074119" style="stop-color:#224099"/>
				<stop  offset="0.2429087" style="stop-color:#8A3191"/>
				<stop  offset="0.5042468" style="stop-color:#CE2453"/>
				<stop  offset="0.8350361" style="stop-color:#F58A22"/>
				<stop  offset="0.9909656" style="stop-color:#FFC72C"/>
			</linearGradient>
			<path class="st25" d="M30.4526348,26.0542564c-0.2236156,0-0.4237823-0.1570663-0.4701195-0.3847141
				c-0.4065228-2.0015202-0.2213631-3.6692104-0.006752-5.6002865c0.1793423-1.6134758-0.1890984-4.8801956-1.9380665-7.2707911
				c-0.1566429-0.2140484-0.1101189-0.5145311,0.1039295-0.6711283c0.2140484-0.1565495,0.5147667-0.1101189,0.6712227,0.104023
				c1.7894878,2.4459362,2.3522778,5.8319683,2.1175938,7.9429512c-0.2056065,1.8517227-0.3832607,3.4500961-0.0065651,5.3039761
				c0.0527153,0.2599163-0.1151848,0.5134525-0.3750057,0.5662613
				C30.5166054,26.051115,30.4843388,26.0542564,30.4526348,26.0542564z"/>
		</g>
		<g>
			
				<linearGradient id="SVGID_26_" gradientUnits="userSpaceOnUse" x1="16.5510788" y1="-12.0213823" x2="38.0133896" y2="36.864994">
				<stop  offset="0.0074119" style="stop-color:#224099"/>
				<stop  offset="0.2429087" style="stop-color:#8A3191"/>
				<stop  offset="0.5042468" style="stop-color:#CE2453"/>
				<stop  offset="0.8350361" style="stop-color:#F58A22"/>
				<stop  offset="0.9909656" style="stop-color:#FFC72C"/>
			</linearGradient>
			<path class="st26" d="M34.3349533,16.4358768c-0.2339325,0-0.4389763-0.1712284-0.4744339-0.4096184
				C32.9251633,9.7394619,28.4121418,4.9913812,22.0829945,3.6348674c-1.7287064-0.3704102-3.4444695-0.4866734-5.0990753-0.3461163
				c-0.2633858,0.0220895-0.4967556-0.1734805-0.519268-0.4378047c-0.0225105-0.2642772,0.1735268-0.4967568,0.437851-0.5192215
				c1.7489681-0.1488581,3.5604038-0.0264041,5.3815956,0.3639383c6.730793,1.4425738,11.5306492,6.4963903,12.5264149,13.1892414
				c0.0390205,0.2623539-0.1420097,0.5066528-0.4042702,0.5457191
				C34.3822289,16.4341888,34.3584023,16.4358768,34.3349533,16.4358768z"/>
		</g>
		<g>
			<linearGradient id="SVGID_27_" gradientUnits="userSpaceOnUse" x1="0.8680224" y1="-5.1361375" x2="22.3303337" y2="43.7502365">
				<stop  offset="0.0074119" style="stop-color:#224099"/>
				<stop  offset="0.2429087" style="stop-color:#8A3191"/>
				<stop  offset="0.5042468" style="stop-color:#CE2453"/>
				<stop  offset="0.8350361" style="stop-color:#F58A22"/>
				<stop  offset="0.9909656" style="stop-color:#FFC72C"/>
			</linearGradient>
			<path class="st27" d="M3.4561126,21.4836426c-0.1686497,0-0.332422-0.0891075-0.4202173-0.2471123
				c-0.2673259-0.4813728-0.7929726-0.8486881-1.6063932-1.1228142c-0.6303259-0.2123604-1.1283959-0.7162457-1.3323139-1.3478851
				c-0.1966017-0.6095963-0.0928605-1.2415638,0.2924637-1.7795906c0.2254916-0.3150234,0.584177-0.6286373,0.9997044-0.9917793
				c1.1068223-0.9675312,2.6224186-2.292388,3.2836978-4.874239c0.5299616-2.5653887,2.2539778-4.6639428,5.4243674-6.6036487
				c1.5165339-0.9278548,3.2069702-1.5791917,5.0244102-1.9358604c0.2588835-0.0510733,0.5125151,0.1183736,0.5637293,0.3787584
				c0.0510263,0.2602439-0.1185617,0.5126557-0.3787584,0.5637288c-1.7052565,0.3346732-3.2893257,0.9445508-4.7081223,1.8127029
				c-2.9323287,1.7940373-4.5169601,3.6970215-4.9870787,5.9888l-0.005065,0.022089
				c-0.7336917,2.8783951-2.4496415,4.3783264-3.5849786,5.3708096c-0.370504,0.3237915-0.690357,0.603405-0.8511276,0.8278179
				c-0.2607598,0.3643131-0.2305567,0.7043324-0.1590822,0.925415c0.1089938,0.3380508,0.386825,0.6187897,0.7246872,0.7326603
				c1.0507308,0.3540421,1.7506551,0.8664646,2.1395435,1.566576c0.1286917,0.2318707,0.0452108,0.5242405-0.1866589,0.6530247
				C3.6151948,21.4641323,3.5350909,21.4836426,3.4561126,21.4836426z"/>
		</g>
		<g>
			<linearGradient id="SVGID_28_" gradientUnits="userSpaceOnUse" x1="4.6199307" y1="-6.7833166" x2="26.0822411" y2="42.1030579">
				<stop  offset="0.0074119" style="stop-color:#224099"/>
				<stop  offset="0.2429087" style="stop-color:#8A3191"/>
				<stop  offset="0.5042468" style="stop-color:#CE2453"/>
				<stop  offset="0.8350361" style="stop-color:#F58A22"/>
				<stop  offset="0.9909656" style="stop-color:#FFC72C"/>
			</linearGradient>
			<path class="st28" d="M20.3938713,28.5363998c-0.2159252,0-0.4121513-0.1466541-0.465992-0.3657207
				c-0.0238247-0.0966587-0.5792999-2.3986149-0.3414268-5.0588341c0.1587067-2.5949364-0.111433-2.8946228-0.813982-2.9936733
				c-0.2616997-0.0371437-1.0599232-0.1489048-1.3767757,1.6142254c-0.2093582,1.16432-0.8468132,2.9527302-1.6157722,3.9737263
				c-0.1594582,0.2117977-0.4605513,0.2543354-0.6725359,0.0946426c-0.2119846-0.1595516-0.2541933-0.4606438-0.0947361-0.6725349
				c0.6549015-0.8695583,1.2452688-2.4958382,1.4375563-3.5657978c0.4181538-2.3262482,1.7178249-2.4994011,2.456583-2.3953781
				c1.8671513,0.2633858,1.7555313,2.0865936,1.6373463,4.0169201c-0.224741,2.5158634,0.3110352,4.735323,0.3164749,4.7574596
				c0.063221,0.2575722-0.0941734,0.5176754-0.3517437,0.5809879
				C20.4704094,28.5318966,20.4317646,28.5363998,20.3938713,28.5363998z"/>
		</g>
	</g>
	<g>
		<path class="st0" d="M175.2264404,6.882688h2.0488434v0.3021746h-0.8538818v2.2210965h-0.3410797V7.1848626h-0.8538818V6.882688z"
			/>
		<path class="st0" d="M179.6697845,9.4059591V7.915976c0-0.0738268,0.0068665-0.3937426,0.0068665-0.6292439h-0.0068665
			l-0.7096558,2.1192269h-0.3376617l-0.7096405-2.1155071h-0.0074463c0,0.2317815,0.0074463,0.5516973,0.0074463,0.625524v1.4899831
			h-0.3302155V6.882688h0.4881592l0.7205353,2.1332488h0.0068665l0.7170868-2.1332488H180v2.5232711H179.6697845z"/>
	</g>
</g>
</svg>
